# xmcd
#
# Track frame offsets:
#	150
#	30599
#	82356
#	127258
#	179550
#	200370
#	247470
#	287807
#	302702
#
# Disc length: 4313 seconds
#
# Revision: 0
# Processed by: cddbd v1.5.2PL0 Copyright (c) Steve Scherf et al.
# Submitted via: audiograbber 1.83.01
#
DISCID=9010d709
DTITLE=Grateful Dead - 93-03-21 The Omni, Atlanta GA
DYEAR=1900
DGENRE=
TTITLE0=Saint Of Circumstance
TTITLE1=He's Gone
TTITLE2=Drums
TTITLE3=Space
TTITLE4=I Need A Miracle
TTITLE5=Days Between
TTITLE6=Around and Around
TTITLE7=Baba O'Riley
TTITLE8=Tomorrow Never Knows
EXTD=
EXTT0=
EXTT1=
EXTT2=
EXTT3=
EXTT4=
EXTT5=
EXTT6=
EXTT7=
EXTT8=
PLAYORDER=
